# xmcd CD database file
#
# Track frame offsets:
#	150
#	8677
#	29872
#	47280
#	64815
#	81675
#	103350
#	112535
#	132975
#	160002
#	167085
#	189232
#	213650
#	233400
#	253730
#	275407
#	293195
#
# Disc length: 4016 seconds
#
# Revision: 5
# Processed by: cddbd v1.5PL3 Copyright (c) Steve Scherf et al.
# Submitted via: CDex 1.40Release
#
DISCID=ec0fae11
DTITLE=SWV - New Beginning
DYEAR=1996
DGENRE=R&B
TTITLE0=New Beginning (Interlude)
TTITLE1=You're The One
TTITLE2=Whatcha Need
TTITLE3=On and On
TTITLE4=It's All About U
TTITLE5=Use Your Heart
TTITLE6=Where Is The Love (Interlude)
TTITLE7=Fine Time
TTITLE8=Love Is So Amazin'
TTITLE9=Use Your Heart (Interlude)
TTITLE10=You Are My Love
TTITLE11=I'm So In Love
TTITLE12=When This Feeling
TTITLE13=What's It Gonna Be
TTITLE14=That's What I'm Here For
TTITLE15=Don't Waste Your Time
TTITLE16=Soul Intact (Interlude)
EXTD=YEAR: 1996 ID3G: 14
EXTT0=
EXTT1=
EXTT2=
EXTT3=
EXTT4=
EXTT5=
EXTT6=
EXTT7=
EXTT8=
EXTT9=
EXTT10=
EXTT11=
EXTT12=
EXTT13=
EXTT14=
EXTT15=
EXTT16=
PLAYORDER=
